{
	"asset":{
		"generator":"Khronos glTF Blender I/O v4.0.44",
		"version":"2.0"
	},
	"extensionsUsed":[
		"KHR_materials_emissive_strength"
	],
	"scene":0,
	"scenes":[
		{
			"name":"Scene",
			"nodes":[
				0,
				1,
				2,
				7
			]
		}
	],
	"nodes":[
		{
			"mesh":0,
			"name":"LTELogo",
			"translation":[
				-0.12216305732727051,
				0,
				-0.14580756425857544
			]
		},
		{
			"mesh":1,
			"name":"LightEmitter",
			"rotation":[
				0.9999303817749023,
				0,
				0,
				0.011807960458099842
			],
			"translation":[
				0,
				3.2282114028930664,
				0
			]
		},
		{
			"mesh":2,
			"name":"BasePlane",
			"rotation":[
				0,
				-0.7071066498756409,
				0.70710688829422,
				3.0908616110991716e-08
			],
			"scale":[
				5,
				5,
				5
			],
			"translation":[
				0,
				0,
				1.5
			]
		},
		{
			"mesh":3,
			"name":"InnerSphere",
			"translation":[
				0,
				-0.00019999999494757503,
				0
			]
		},
		{
			"mesh":4,
			"name":"Equation",
			"translation":[
				0,
				-0.00019999999494757503,
				0
			]
		},
		{
			"mesh":5,
			"name":"OuterSphere",
			"translation":[
				0,
				-0.00019999999494757503,
				0
			]
		},
		{
			"mesh":6,
			"name":"ObjBase",
			"translation":[
				0,
				-0.00019999999494757503,
				0
			]
		},
		{
			"children":[
				3,
				4,
				5,
				6
			],
			"name":"LTEObj",
			"translation":[
				0,
				0.00019999999494757503,
				0
			]
		}
	],
	"materials":[
		{
			"doubleSided":true,
			"name":"lteorb_LTELogo",
			"pbrMetallicRoughness":{
				"baseColorFactor":[
					0.800000011920929,
					0.800000011920929,
					0.800000011920929,
					1
				],
				"metallicFactor":0,
				"roughnessFactor":0.5
			}
		},
		{
			"doubleSided":true,
			"emissiveFactor":[
				1,
				1,
				1
			],
			"extensions":{
				"KHR_materials_emissive_strength":{
					"emissiveStrength":5
				}
			},
			"name":"lteorb_Emitter",
			"pbrMetallicRoughness":{
				"baseColorFactor":[
					0,
					0,
					0,
					1
				]
			}
		},
		{
			"doubleSided":true,
			"name":"lteorb_BackGroundMat",
			"pbrMetallicRoughness":{
				"baseColorTexture":{
					"index":0
				},
				"metallicFactor":0,
				"roughnessFactor":0
			}
		},
		{
			"doubleSided":true,
			"name":"lteorb_InnerMat",
			"pbrMetallicRoughness":{
				"baseColorFactor":[
					0.800000011920929,
					0.800000011920929,
					0.800000011920929,
					1
				],
				"metallicFactor":0,
				"roughnessFactor":0.5
			}
		},
		{
			"doubleSided":true,
			"name":"lteorb_OuterMat",
			"pbrMetallicRoughness":{
				"baseColorFactor":[
					0.800000011920929,
					0.800000011920929,
					0.800000011920929,
					1
				],
				"metallicFactor":0,
				"roughnessFactor":0.5
			}
		}
	],
	"meshes":[
		{
			"name":"Untitled.003",
			"primitives":[
				{
					"attributes":{
						"POSITION":0,
						"NORMAL":1,
						"TEXCOORD_0":2,
						"TANGENT":3
					},
					"indices":4,
					"material":0
				}
			]
		},
		{
			"name":"Plane",
			"primitives":[
				{
					"attributes":{
						"POSITION":5,
						"NORMAL":6
					},
					"indices":7,
					"material":1
				}
			]
		},
		{
			"name":"Untitled.001",
			"primitives":[
				{
					"attributes":{
						"POSITION":8,
						"NORMAL":9,
						"TEXCOORD_0":10,
						"TANGENT":11
					},
					"indices":12,
					"material":2
				}
			]
		},
		{
			"name":"Untitled",
			"primitives":[
				{
					"attributes":{
						"POSITION":13,
						"NORMAL":14,
						"TEXCOORD_0":15,
						"TANGENT":16
					},
					"indices":17,
					"material":3
				}
			]
		},
		{
			"name":"Untitled.008",
			"primitives":[
				{
					"attributes":{
						"POSITION":18,
						"NORMAL":19,
						"TEXCOORD_0":20,
						"TANGENT":21
					},
					"indices":22,
					"material":3
				}
			]
		},
		{
			"name":"Untitled.002",
			"primitives":[
				{
					"attributes":{
						"POSITION":23,
						"NORMAL":24,
						"TEXCOORD_0":25,
						"TANGENT":26
					},
					"indices":27,
					"material":4
				}
			]
		},
		{
			"name":"Untitled.004",
			"primitives":[
				{
					"attributes":{
						"POSITION":28,
						"NORMAL":29,
						"TEXCOORD_0":30,
						"TANGENT":31
					},
					"indices":32,
					"material":4
				}
			]
		}
	],
	"textures":[
		{
			"sampler":0,
			"source":0
		}
	],
	"images":[
		{
			"mimeType":"image/jpeg",
			"name":"Checker",
			"uri":"Checker.jpg"
		}
	],
	"accessors":[
		{
			"bufferView":0,
			"componentType":5126,
			"count":28207,
			"max":[
				-0.0021828680764883757,
				0.009434375911951065,
				0.06123258173465729
			],
			"min":[
				-0.21046583354473114,
				7.362519909293042e-07,
				0.002051308285444975
			],
			"type":"VEC3"
		},
		{
			"bufferView":1,
			"componentType":5126,
			"count":28207,
			"type":"VEC3"
		},
		{
			"bufferView":2,
			"componentType":5126,
			"count":28207,
			"type":"VEC2"
		},
		{
			"bufferView":3,
			"componentType":5126,
			"count":28207,
			"type":"VEC4"
		},
		{
			"bufferView":4,
			"componentType":5123,
			"count":160464,
			"type":"SCALAR"
		},
		{
			"bufferView":5,
			"componentType":5126,
			"count":4,
			"max":[
				1,
				0,
				1
			],
			"min":[
				-1,
				0,
				-1
			],
			"type":"VEC3"
		},
		{
			"bufferView":6,
			"componentType":5126,
			"count":4,
			"type":"VEC3"
		},
		{
			"bufferView":7,
			"componentType":5123,
			"count":6,
			"type":"SCALAR"
		},
		{
			"bufferView":8,
			"componentType":5126,
			"count":1681,
			"max":[
				0.5,
				0.5,
				1.1102230246251565e-16
			],
			"min":[
				-0.5,
				-0.2636195421218872,
				-0.3617417514324188
			],
			"type":"VEC3"
		},
		{
			"bufferView":9,
			"componentType":5126,
			"count":1681,
			"type":"VEC3"
		},
		{
			"bufferView":10,
			"componentType":5126,
			"count":1681,
			"type":"VEC2"
		},
		{
			"bufferView":11,
			"componentType":5126,
			"count":1681,
			"type":"VEC4"
		},
		{
			"bufferView":12,
			"componentType":5123,
			"count":9600,
			"type":"SCALAR"
		},
		{
			"bufferView":13,
			"componentType":5126,
			"count":9305,
			"max":[
				0.09867064654827118,
				0.24940167367458344,
				0.09920161962509155
			],
			"min":[
				-0.09867067635059357,
				0.05099835991859436,
				-0.09920167922973633
			],
			"type":"VEC3"
		},
		{
			"bufferView":14,
			"componentType":5126,
			"count":9305,
			"type":"VEC3"
		},
		{
			"bufferView":15,
			"componentType":5126,
			"count":9305,
			"type":"VEC2"
		},
		{
			"bufferView":16,
			"componentType":5126,
			"count":9305,
			"type":"VEC4"
		},
		{
			"bufferView":17,
			"componentType":5123,
			"count":54144,
			"type":"SCALAR"
		},
		{
			"bufferView":18,
			"componentType":5126,
			"count":28198,
			"max":[
				0.0544789582490921,
				0.2314578890800476,
				-0.05421503633260727
			],
			"min":[
				-0.0538400374352932,
				0.20479819178581238,
				-0.08154873549938202
			],
			"type":"VEC3"
		},
		{
			"bufferView":19,
			"componentType":5126,
			"count":28198,
			"type":"VEC3"
		},
		{
			"bufferView":20,
			"componentType":5126,
			"count":28198,
			"type":"VEC2"
		},
		{
			"bufferView":21,
			"componentType":5126,
			"count":28198,
			"type":"VEC4"
		},
		{
			"bufferView":22,
			"componentType":5123,
			"count":160464,
			"type":"SCALAR"
		},
		{
			"bufferView":23,
			"componentType":5126,
			"count":18732,
			"max":[
				0.12065786123275757,
				0.27130720019340515,
				0.12130717933177948
			],
			"min":[
				-0.12065789103507996,
				0.02869279868900776,
				-0.12130720913410187
			],
			"type":"VEC3"
		},
		{
			"bufferView":24,
			"componentType":5126,
			"count":18732,
			"type":"VEC3"
		},
		{
			"bufferView":25,
			"componentType":5126,
			"count":18732,
			"type":"VEC2"
		},
		{
			"bufferView":26,
			"componentType":5126,
			"count":18732,
			"type":"VEC4"
		},
		{
			"bufferView":27,
			"componentType":5123,
			"count":109824,
			"type":"SCALAR"
		},
		{
			"bufferView":28,
			"componentType":5126,
			"count":14194,
			"max":[
				0.14406916499137878,
				0.08339539170265198,
				0.1440691500902176
			],
			"min":[
				-0.14406916499137878,
				0.0007252847426570952,
				-0.1021249070763588
			],
			"type":"VEC3"
		},
		{
			"bufferView":29,
			"componentType":5126,
			"count":14194,
			"type":"VEC3"
		},
		{
			"bufferView":30,
			"componentType":5126,
			"count":14194,
			"type":"VEC2"
		},
		{
			"bufferView":31,
			"componentType":5126,
			"count":14194,
			"type":"VEC4"
		},
		{
			"bufferView":32,
			"componentType":5123,
			"count":81408,
			"type":"SCALAR"
		}
	],
	"bufferViews":[
		{
			"buffer":0,
			"byteLength":338484,
			"byteOffset":0,
			"target":34962
		},
		{
			"buffer":0,
			"byteLength":338484,
			"byteOffset":338484,
			"target":34962
		},
		{
			"buffer":0,
			"byteLength":225656,
			"byteOffset":676968,
			"target":34962
		},
		{
			"buffer":0,
			"byteLength":451312,
			"byteOffset":902624,
			"target":34962
		},
		{
			"buffer":0,
			"byteLength":320928,
			"byteOffset":1353936,
			"target":34963
		},
		{
			"buffer":0,
			"byteLength":48,
			"byteOffset":1674864,
			"target":34962
		},
		{
			"buffer":0,
			"byteLength":48,
			"byteOffset":1674912,
			"target":34962
		},
		{
			"buffer":0,
			"byteLength":12,
			"byteOffset":1674960,
			"target":34963
		},
		{
			"buffer":0,
			"byteLength":20172,
			"byteOffset":1674972,
			"target":34962
		},
		{
			"buffer":0,
			"byteLength":20172,
			"byteOffset":1695144,
			"target":34962
		},
		{
			"buffer":0,
			"byteLength":13448,
			"byteOffset":1715316,
			"target":34962
		},
		{
			"buffer":0,
			"byteLength":26896,
			"byteOffset":1728764,
			"target":34962
		},
		{
			"buffer":0,
			"byteLength":19200,
			"byteOffset":1755660,
			"target":34963
		},
		{
			"buffer":0,
			"byteLength":111660,
			"byteOffset":1774860,
			"target":34962
		},
		{
			"buffer":0,
			"byteLength":111660,
			"byteOffset":1886520,
			"target":34962
		},
		{
			"buffer":0,
			"byteLength":74440,
			"byteOffset":1998180,
			"target":34962
		},
		{
			"buffer":0,
			"byteLength":148880,
			"byteOffset":2072620,
			"target":34962
		},
		{
			"buffer":0,
			"byteLength":108288,
			"byteOffset":2221500,
			"target":34963
		},
		{
			"buffer":0,
			"byteLength":338376,
			"byteOffset":2329788,
			"target":34962
		},
		{
			"buffer":0,
			"byteLength":338376,
			"byteOffset":2668164,
			"target":34962
		},
		{
			"buffer":0,
			"byteLength":225584,
			"byteOffset":3006540,
			"target":34962
		},
		{
			"buffer":0,
			"byteLength":451168,
			"byteOffset":3232124,
			"target":34962
		},
		{
			"buffer":0,
			"byteLength":320928,
			"byteOffset":3683292,
			"target":34963
		},
		{
			"buffer":0,
			"byteLength":224784,
			"byteOffset":4004220,
			"target":34962
		},
		{
			"buffer":0,
			"byteLength":224784,
			"byteOffset":4229004,
			"target":34962
		},
		{
			"buffer":0,
			"byteLength":149856,
			"byteOffset":4453788,
			"target":34962
		},
		{
			"buffer":0,
			"byteLength":299712,
			"byteOffset":4603644,
			"target":34962
		},
		{
			"buffer":0,
			"byteLength":219648,
			"byteOffset":4903356,
			"target":34963
		},
		{
			"buffer":0,
			"byteLength":170328,
			"byteOffset":5123004,
			"target":34962
		},
		{
			"buffer":0,
			"byteLength":170328,
			"byteOffset":5293332,
			"target":34962
		},
		{
			"buffer":0,
			"byteLength":113552,
			"byteOffset":5463660,
			"target":34962
		},
		{
			"buffer":0,
			"byteLength":227104,
			"byteOffset":5577212,
			"target":34962
		},
		{
			"buffer":0,
			"byteLength":162816,
			"byteOffset":5804316,
			"target":34963
		}
	],
	"samplers":[
		{
			"magFilter":9729,
			"minFilter":9987
		}
	],
	"buffers":[
		{
			"byteLength":5967132,
			"uri":"lte-orb.bin"
		}
	]
}
