{
	"asset":{
		"generator":"Khronos glTF Blender I/O v3.6.6",
		"version":"2.0"
	},
	"extensionsUsed":[
		"KHR_materials_specular",
		"KHR_materials_ior"
	],
	"scene":0,
	"scenes":[
		{
			"name":"Scene",
			"nodes":[
				0
			]
		}
	],
	"nodes":[
		{
			"mesh":0,
			"name":"statue",
			"rotation":[
				0.7071068286895752,
				0,
				0,
				0.7071068286895752
			]
		}
	],
	"materials":[
		{
			"doubleSided":true,
			"extensions":{
				"KHR_materials_specular":{
					"specularColorFactor":[
						0.7067575213937557,
						0.7067575213937557,
						0.7067575213937557
					]
				},
				"KHR_materials_ior":{
					"ior":1.4500000476837158
				}
			},
			"name":"ajax",
			"pbrMetallicRoughness":{
				"metallicFactor":0.5,
				"roughnessFactor":0.5
			}
		}
	],
	"meshes":[
		{
			"name":"statue",
			"primitives":[
				{
					"attributes":{
						"POSITION":0,
						"NORMAL":1
					},
					"indices":2,
					"material":0
				}
			]
		}
	],
	"accessors":[
		{
			"bufferView":0,
			"componentType":5126,
			"count":55189,
			"max":[
				11.586669921875,
				9.071279525756836,
				18.059829711914062
			],
			"min":[
				-11.58810043334961,
				-9.071279525756836,
				-18.06920051574707
			],
			"type":"VEC3"
		},
		{
			"bufferView":1,
			"componentType":5126,
			"count":55189,
			"type":"VEC3"
		},
		{
			"bufferView":2,
			"componentType":5123,
			"count":180000,
			"type":"SCALAR"
		}
	],
	"bufferViews":[
		{
			"buffer":0,
			"byteLength":662268,
			"byteOffset":0,
			"target":34962
		},
		{
			"buffer":0,
			"byteLength":662268,
			"byteOffset":662268,
			"target":34962
		},
		{
			"buffer":0,
			"byteLength":360000,
			"byteOffset":1324536,
			"target":34963
		}
	],
	"buffers":[
		{
			"byteLength":1684536,
			"uri":"ajax.bin"
		}
	]
}
