{
	"asset":{
		"generator":"Khronos glTF Blender I/O v4.1.63",
		"version":"2.0"
	},
	"scene":0,
	"scenes":[
		{
			"name":"Scene",
			"nodes":[
				0
			]
		}
	],
	"nodes":[
		{
			"mesh":0,
			"name":"xyzrgb_dragon",
			"rotation":[
				0.7071068286895752,
				0,
				0,
				0.7071068286895752
			]
		}
	],
	"materials":[
		{
			"doubleSided":true,
			"name":"dragon",
			"pbrMetallicRoughness":{
				"baseColorFactor":[
					0.800000011920929,
					0.800000011920929,
					0.800000011920929,
					1
				],
				"metallicFactor":0,
				"roughnessFactor":0.5
			}
		}
	],
	"meshes":[
		{
			"name":"xyzrgb_dragon",
			"primitives":[
				{
					"attributes":{
						"POSITION":0,
						"NORMAL":1
					},
					"indices":2,
					"material":0
				}
			]
		}
	],
	"accessors":[
		{
			"bufferView":0,
			"componentType":5126,
			"count":3609600,
			"max":[
				103.09210205078125,
				76.93836212158203,
				62.75
			],
			"min":[
				-98.65142059326172,
				-57.263587951660156,
				-49.276268005371094
			],
			"type":"VEC3"
		},
		{
			"bufferView":1,
			"componentType":5126,
			"count":3609600,
			"type":"VEC3"
		},
		{
			"bufferView":2,
			"componentType":5125,
			"count":21657135,
			"type":"SCALAR"
		}
	],
	"bufferViews":[
		{
			"buffer":0,
			"byteLength":43315200,
			"byteOffset":0,
			"target":34962
		},
		{
			"buffer":0,
			"byteLength":43315200,
			"byteOffset":43315200,
			"target":34962
		},
		{
			"buffer":0,
			"byteLength":86628540,
			"byteOffset":86630400,
			"target":34963
		}
	],
	"buffers":[
		{
			"byteLength":173258940,
			"uri":"dragon.bin"
		}
	]
}
