{
	"asset":{
		"generator":"Khronos glTF Blender I/O v4.0.44",
		"version":"2.0"
	},
	"scene":0,
	"scenes":[
		{
			"name":"Scene",
			"nodes":[
				0
			]
		}
	],
	"nodes":[
		{
			"mesh":0,
			"name":"BasePlane",
			"rotation":[
				0,
				-0.7071066498756409,
				0.70710688829422,
				3.0908616110991716e-08
			],
			"scale":[
				5,
				5,
				5
			],
			"translation":[
				0,
				0,
				1.5
			]
		}
	],
	"materials":[
		{
			"doubleSided":true,
			"name":"lteorb_BackGroundMat",
			"pbrMetallicRoughness":{
				"baseColorTexture":{
					"index":0
				},
				"metallicFactor":0,
				"roughnessFactor":0
			}
		}
	],
	"meshes":[
		{
			"name":"Untitled.001",
			"primitives":[
				{
					"attributes":{
						"POSITION":0,
						"NORMAL":1,
						"TEXCOORD_0":2,
						"TANGENT":3
					},
					"indices":4,
					"material":0
				}
			]
		}
	],
	"textures":[
		{
			"sampler":0,
			"source":0
		}
	],
	"images":[
		{
			"mimeType":"image/jpeg",
			"name":"checkerboard",
			"uri":"checkerboard.jpg"
		}
	],
	"accessors":[
		{
			"bufferView":0,
			"componentType":5126,
			"count":1681,
			"max":[
				0.5,
				0.5,
				1.1102230246251565e-16
			],
			"min":[
				-0.5,
				-0.2636195421218872,
				-0.3617417514324188
			],
			"type":"VEC3"
		},
		{
			"bufferView":1,
			"componentType":5126,
			"count":1681,
			"type":"VEC3"
		},
		{
			"bufferView":2,
			"componentType":5126,
			"count":1681,
			"type":"VEC2"
		},
		{
			"bufferView":3,
			"componentType":5126,
			"count":1681,
			"type":"VEC4"
		},
		{
			"bufferView":4,
			"componentType":5123,
			"count":9600,
			"type":"SCALAR"
		}
	],
	"bufferViews":[
		{
			"buffer":0,
			"byteLength":20172,
			"byteOffset":0,
			"target":34962
		},
		{
			"buffer":0,
			"byteLength":20172,
			"byteOffset":20172,
			"target":34962
		},
		{
			"buffer":0,
			"byteLength":13448,
			"byteOffset":40344,
			"target":34962
		},
		{
			"buffer":0,
			"byteLength":26896,
			"byteOffset":53792,
			"target":34962
		},
		{
			"buffer":0,
			"byteLength":19200,
			"byteOffset":80688,
			"target":34963
		}
	],
	"samplers":[
		{
			"magFilter":9729,
			"minFilter":9987
		}
	],
	"buffers":[
		{
			"byteLength":99888,
			"uri":"background.bin"
		}
	]
}
